<mxfile host="app.diagrams.net" modified="2023-05-14T12:20:26.620Z" agent="Mozilla/5.0 (Windows NT 10.0; Win64; x64; rv:109.0) Gecko/20100101 Firefox/112.0" etag="4dm3cqY7XXaB8ZU_J4RZ" version="21.2.9" type="device">
  <diagram name="Side-1" id="q69Uj-xXSAzOU8xlo7r-">
    <mxGraphModel dx="2333" dy="2502" grid="1" gridSize="10" guides="1" tooltips="1" connect="1" arrows="1" fold="1" page="1" pageScale="1" pageWidth="827" pageHeight="1169" math="0" shadow="0">
      <root>
        <mxCell id="0" />
        <mxCell id="1" parent="0" />
        <mxCell id="RGzH9FZQZOFzf2Un8pL5-28" value="" style="group" vertex="1" connectable="0" parent="1">
          <mxGeometry x="690" y="500" width="440" height="390" as="geometry" />
        </mxCell>
        <mxCell id="RGzH9FZQZOFzf2Un8pL5-18" value="&lt;div&gt;&lt;i&gt;&amp;lt;&amp;lt;device&amp;gt;&amp;gt;&lt;/i&gt;&lt;/div&gt;&lt;div align=&quot;center&quot;&gt;&lt;b&gt;:droplet&lt;/b&gt;&lt;br&gt;&lt;/div&gt;" style="verticalAlign=top;align=left;spacingTop=8;spacingLeft=2;spacingRight=12;shape=cube;size=10;direction=south;fontStyle=4;html=1;whiteSpace=wrap;" vertex="1" parent="RGzH9FZQZOFzf2Un8pL5-28">
          <mxGeometry width="440" height="390" as="geometry" />
        </mxCell>
        <mxCell id="RGzH9FZQZOFzf2Un8pL5-38" value="" style="group" vertex="1" connectable="0" parent="RGzH9FZQZOFzf2Un8pL5-28">
          <mxGeometry x="30" y="55" width="170" height="140" as="geometry" />
        </mxCell>
        <mxCell id="RGzH9FZQZOFzf2Un8pL5-21" value="&lt;div align=&quot;center&quot;&gt;&lt;i&gt;&amp;lt;&amp;lt;docker image&amp;gt;&amp;gt;&lt;/i&gt;&lt;/div&gt;&lt;div align=&quot;center&quot;&gt;&lt;b&gt;:grafana/loki&lt;/b&gt;&lt;/div&gt;" style="verticalAlign=top;align=center;spacingTop=8;spacingLeft=2;spacingRight=12;shape=cube;size=10;direction=south;fontStyle=4;html=1;whiteSpace=wrap;" vertex="1" parent="RGzH9FZQZOFzf2Un8pL5-38">
          <mxGeometry width="170" height="140" as="geometry" />
        </mxCell>
        <mxCell id="RGzH9FZQZOFzf2Un8pL5-23" value="&lt;div&gt;&lt;u&gt;&lt;b&gt;:loki&lt;/b&gt;&lt;/u&gt;&lt;br&gt;&lt;/div&gt;" style="shape=module;align=left;spacingLeft=20;align=center;verticalAlign=top;whiteSpace=wrap;html=1;" vertex="1" parent="RGzH9FZQZOFzf2Un8pL5-38">
          <mxGeometry x="25" y="60" width="100" height="50" as="geometry" />
        </mxCell>
        <mxCell id="RGzH9FZQZOFzf2Un8pL5-47" value="" style="group" vertex="1" connectable="0" parent="RGzH9FZQZOFzf2Un8pL5-28">
          <mxGeometry x="240" y="55" width="160" height="140" as="geometry" />
        </mxCell>
        <mxCell id="RGzH9FZQZOFzf2Un8pL5-19" value="&lt;div align=&quot;center&quot;&gt;&lt;i&gt;&amp;lt;&amp;lt;docker image&amp;gt;&amp;gt;&lt;/i&gt;&lt;/div&gt;&lt;div align=&quot;center&quot;&gt;&lt;b&gt;:prom/prometheus&lt;/b&gt;&lt;/div&gt;" style="verticalAlign=top;align=center;spacingTop=8;spacingLeft=2;spacingRight=12;shape=cube;size=10;direction=south;fontStyle=4;html=1;whiteSpace=wrap;" vertex="1" parent="RGzH9FZQZOFzf2Un8pL5-47">
          <mxGeometry width="160" height="140" as="geometry" />
        </mxCell>
        <mxCell id="RGzH9FZQZOFzf2Un8pL5-20" value="&lt;div&gt;&lt;u&gt;&lt;b&gt;:prometheus&lt;/b&gt;&lt;/u&gt;&lt;br&gt;&lt;/div&gt;" style="shape=module;align=left;spacingLeft=20;align=center;verticalAlign=top;whiteSpace=wrap;html=1;" vertex="1" parent="RGzH9FZQZOFzf2Un8pL5-47">
          <mxGeometry x="20" y="65" width="100" height="50" as="geometry" />
        </mxCell>
        <mxCell id="RGzH9FZQZOFzf2Un8pL5-46" value="" style="group" vertex="1" connectable="0" parent="RGzH9FZQZOFzf2Un8pL5-28">
          <mxGeometry x="137" y="220" width="160" height="140" as="geometry" />
        </mxCell>
        <mxCell id="RGzH9FZQZOFzf2Un8pL5-22" value="&lt;div align=&quot;center&quot;&gt;&lt;i&gt;&amp;lt;&amp;lt;docker image&amp;gt;&amp;gt;&lt;/i&gt;&lt;/div&gt;&lt;div align=&quot;center&quot;&gt;&lt;b&gt;:grafana/grafana&lt;/b&gt;&lt;/div&gt;" style="verticalAlign=top;align=center;spacingTop=8;spacingLeft=2;spacingRight=12;shape=cube;size=10;direction=south;fontStyle=4;html=1;whiteSpace=wrap;" vertex="1" parent="RGzH9FZQZOFzf2Un8pL5-46">
          <mxGeometry width="160" height="140" as="geometry" />
        </mxCell>
        <mxCell id="RGzH9FZQZOFzf2Un8pL5-24" value="&lt;div&gt;&lt;u&gt;&lt;b&gt;:grafana&lt;/b&gt;&lt;/u&gt;&lt;br&gt;&lt;/div&gt;" style="shape=module;align=left;spacingLeft=20;align=center;verticalAlign=top;whiteSpace=wrap;html=1;" vertex="1" parent="RGzH9FZQZOFzf2Un8pL5-46">
          <mxGeometry x="20" y="65" width="100" height="50" as="geometry" />
        </mxCell>
        <mxCell id="RGzH9FZQZOFzf2Un8pL5-56" style="edgeStyle=orthogonalEdgeStyle;rounded=0;orthogonalLoop=1;jettySize=auto;html=1;exitX=0;exitY=0;exitDx=140;exitDy=85;exitPerimeter=0;entryX=0;entryY=0;entryDx=65;entryDy=0;entryPerimeter=0;endArrow=none;endFill=0;" edge="1" parent="RGzH9FZQZOFzf2Un8pL5-28" source="RGzH9FZQZOFzf2Un8pL5-19" target="RGzH9FZQZOFzf2Un8pL5-22">
          <mxGeometry relative="1" as="geometry">
            <Array as="points">
              <mxPoint x="317" y="195" />
              <mxPoint x="317" y="285" />
            </Array>
          </mxGeometry>
        </mxCell>
        <mxCell id="RGzH9FZQZOFzf2Un8pL5-57" value="&lt;div&gt;&lt;i&gt;&amp;lt;&amp;lt;protocol&amp;gt;&amp;gt;&lt;/i&gt;&lt;/div&gt;&lt;div&gt;HTTP&lt;i&gt;&lt;br&gt;&lt;/i&gt;&lt;/div&gt;" style="edgeLabel;html=1;align=center;verticalAlign=middle;resizable=0;points=[];" vertex="1" connectable="0" parent="RGzH9FZQZOFzf2Un8pL5-56">
          <mxGeometry x="-0.4182" relative="1" as="geometry">
            <mxPoint x="43" y="4" as="offset" />
          </mxGeometry>
        </mxCell>
        <mxCell id="RGzH9FZQZOFzf2Un8pL5-58" style="edgeStyle=orthogonalEdgeStyle;rounded=0;orthogonalLoop=1;jettySize=auto;html=1;exitX=0;exitY=0;exitDx=140;exitDy=90;exitPerimeter=0;entryX=0.411;entryY=1.003;entryDx=0;entryDy=0;entryPerimeter=0;endArrow=none;endFill=0;" edge="1" parent="RGzH9FZQZOFzf2Un8pL5-28" source="RGzH9FZQZOFzf2Un8pL5-21" target="RGzH9FZQZOFzf2Un8pL5-22">
          <mxGeometry relative="1" as="geometry" />
        </mxCell>
        <mxCell id="RGzH9FZQZOFzf2Un8pL5-59" value="&lt;div&gt;&lt;i&gt;&amp;lt;&amp;lt;protocol&amp;gt;&amp;gt;&lt;/i&gt;&lt;/div&gt;&lt;div&gt;HTTP&lt;br&gt;&lt;/div&gt;" style="edgeLabel;html=1;align=center;verticalAlign=middle;resizable=0;points=[];" vertex="1" connectable="0" parent="RGzH9FZQZOFzf2Un8pL5-58">
          <mxGeometry x="-0.4853" y="-1" relative="1" as="geometry">
            <mxPoint x="-39" y="22" as="offset" />
          </mxGeometry>
        </mxCell>
        <mxCell id="RGzH9FZQZOFzf2Un8pL5-29" value="" style="group" vertex="1" connectable="0" parent="1">
          <mxGeometry x="1010" y="170" width="130" height="150" as="geometry" />
        </mxCell>
        <mxCell id="RGzH9FZQZOFzf2Un8pL5-15" value="&lt;div&gt;&lt;i&gt;&amp;lt;&amp;lt;device&amp;gt;&amp;gt;&lt;/i&gt;&lt;/div&gt;&lt;div align=&quot;center&quot;&gt;&lt;b&gt;:droplet&lt;/b&gt;&lt;br&gt;&lt;/div&gt;" style="verticalAlign=top;align=left;spacingTop=8;spacingLeft=2;spacingRight=12;shape=cube;size=10;direction=south;fontStyle=4;html=1;whiteSpace=wrap;" vertex="1" parent="RGzH9FZQZOFzf2Un8pL5-29">
          <mxGeometry width="130" height="142.10526315789474" as="geometry" />
        </mxCell>
        <mxCell id="RGzH9FZQZOFzf2Un8pL5-17" value="&lt;u&gt;&lt;b&gt;:postgres&lt;/b&gt;&lt;/u&gt;" style="shape=cylinder3;whiteSpace=wrap;html=1;boundedLbl=1;backgroundOutline=1;size=15;" vertex="1" parent="RGzH9FZQZOFzf2Un8pL5-29">
          <mxGeometry x="24" y="60" width="72" height="66.54" as="geometry" />
        </mxCell>
        <mxCell id="RGzH9FZQZOFzf2Un8pL5-30" value="" style="group" vertex="1" connectable="0" parent="1">
          <mxGeometry x="690" y="150" width="210" height="300" as="geometry" />
        </mxCell>
        <mxCell id="RGzH9FZQZOFzf2Un8pL5-1" value="&lt;div&gt;&lt;i&gt;&amp;lt;&amp;lt;device&amp;gt;&amp;gt;&lt;/i&gt;&lt;/div&gt;&lt;div align=&quot;center&quot;&gt;&lt;b&gt;:droplet&lt;/b&gt;&lt;br&gt;&lt;/div&gt;" style="verticalAlign=top;align=left;spacingTop=8;spacingLeft=2;spacingRight=12;shape=cube;size=10;direction=south;fontStyle=4;html=1;whiteSpace=wrap;" vertex="1" parent="RGzH9FZQZOFzf2Un8pL5-30">
          <mxGeometry width="210" height="300" as="geometry" />
        </mxCell>
        <mxCell id="RGzH9FZQZOFzf2Un8pL5-2" value="&lt;div align=&quot;center&quot;&gt;&lt;i&gt;&amp;lt;&amp;lt;docker image&amp;gt;&amp;gt;&lt;/i&gt;&lt;/div&gt;&lt;div align=&quot;center&quot;&gt;&lt;b&gt;:containermaintainers/&lt;/b&gt;&lt;/div&gt;&lt;div align=&quot;center&quot;&gt;&lt;b&gt;minitwit:latest&lt;/b&gt;&lt;br&gt;&lt;/div&gt;" style="verticalAlign=top;align=center;spacingTop=8;spacingLeft=2;spacingRight=12;shape=cube;size=10;direction=south;fontStyle=4;html=1;whiteSpace=wrap;" vertex="1" parent="RGzH9FZQZOFzf2Un8pL5-30">
          <mxGeometry x="20" y="60" width="160" height="140" as="geometry" />
        </mxCell>
        <mxCell id="RGzH9FZQZOFzf2Un8pL5-3" value="&lt;div&gt;&lt;u&gt;&lt;b&gt;:minitwit&lt;/b&gt;&lt;/u&gt;&lt;br&gt;&lt;/div&gt;" style="shape=module;align=left;spacingLeft=20;align=center;verticalAlign=top;whiteSpace=wrap;html=1;" vertex="1" parent="RGzH9FZQZOFzf2Un8pL5-30">
          <mxGeometry x="45" y="130" width="100" height="50" as="geometry" />
        </mxCell>
        <mxCell id="RGzH9FZQZOFzf2Un8pL5-26" value="«dockerPlugin»&lt;br&gt;&lt;b&gt;:loki&lt;/b&gt;" style="html=1;dropTarget=0;whiteSpace=wrap;" vertex="1" parent="RGzH9FZQZOFzf2Un8pL5-30">
          <mxGeometry x="28.75" y="220" width="142.5" height="60" as="geometry" />
        </mxCell>
        <mxCell id="RGzH9FZQZOFzf2Un8pL5-27" value="" style="shape=module;jettyWidth=8;jettyHeight=4;" vertex="1" parent="RGzH9FZQZOFzf2Un8pL5-26">
          <mxGeometry x="1" width="20" height="20" relative="1" as="geometry">
            <mxPoint x="-27" y="7" as="offset" />
          </mxGeometry>
        </mxCell>
        <mxCell id="RGzH9FZQZOFzf2Un8pL5-43" style="edgeStyle=orthogonalEdgeStyle;rounded=0;orthogonalLoop=1;jettySize=auto;html=1;entryX=0;entryY=0.5;entryDx=0;entryDy=0;entryPerimeter=0;endArrow=none;endFill=0;exitX=0.277;exitY=0.002;exitDx=0;exitDy=0;exitPerimeter=0;" edge="1" parent="1" source="RGzH9FZQZOFzf2Un8pL5-2" target="RGzH9FZQZOFzf2Un8pL5-17">
          <mxGeometry relative="1" as="geometry">
            <mxPoint x="860" y="261" as="sourcePoint" />
          </mxGeometry>
        </mxCell>
        <mxCell id="RGzH9FZQZOFzf2Un8pL5-45" value="&lt;div&gt;&lt;i&gt;&amp;lt;&amp;lt;protocol&amp;gt;&amp;gt;&lt;/i&gt;&lt;/div&gt;&lt;div&gt;TCP/IP&lt;br&gt;&lt;/div&gt;" style="edgeLabel;html=1;align=center;verticalAlign=middle;resizable=0;points=[];" vertex="1" connectable="0" parent="RGzH9FZQZOFzf2Un8pL5-43">
          <mxGeometry x="-0.3722" y="1" relative="1" as="geometry">
            <mxPoint x="24" y="-18" as="offset" />
          </mxGeometry>
        </mxCell>
        <mxCell id="RGzH9FZQZOFzf2Un8pL5-48" style="edgeStyle=orthogonalEdgeStyle;rounded=0;orthogonalLoop=1;jettySize=auto;html=1;exitX=0.659;exitY=-0.001;exitDx=0;exitDy=0;exitPerimeter=0;entryX=0;entryY=0;entryDx=0;entryDy=75;entryPerimeter=0;endArrow=none;endFill=0;" edge="1" parent="1" source="RGzH9FZQZOFzf2Un8pL5-2" target="RGzH9FZQZOFzf2Un8pL5-19">
          <mxGeometry relative="1" as="geometry">
            <mxPoint x="970" y="449.9999999999999" as="targetPoint" />
            <Array as="points">
              <mxPoint x="990" y="302" />
              <mxPoint x="990" y="330" />
              <mxPoint x="1015" y="330" />
            </Array>
          </mxGeometry>
        </mxCell>
        <mxCell id="RGzH9FZQZOFzf2Un8pL5-52" value="&lt;div&gt;&lt;i&gt;&amp;lt;&amp;lt;protocol&amp;gt;&amp;gt;&lt;/i&gt;&lt;/div&gt;&lt;div&gt;HTTP&lt;br&gt;&lt;/div&gt;" style="edgeLabel;html=1;align=center;verticalAlign=middle;resizable=0;points=[];" vertex="1" connectable="0" parent="RGzH9FZQZOFzf2Un8pL5-48">
          <mxGeometry x="0.2004" relative="1" as="geometry">
            <mxPoint x="35" y="4" as="offset" />
          </mxGeometry>
        </mxCell>
        <mxCell id="RGzH9FZQZOFzf2Un8pL5-53" style="edgeStyle=orthogonalEdgeStyle;rounded=0;orthogonalLoop=1;jettySize=auto;html=1;entryX=0;entryY=0;entryDx=0;entryDy=80;entryPerimeter=0;endArrow=none;endFill=0;" edge="1" parent="1" target="RGzH9FZQZOFzf2Un8pL5-21">
          <mxGeometry relative="1" as="geometry">
            <mxPoint x="810" y="430" as="sourcePoint" />
            <Array as="points">
              <mxPoint x="810" y="430" />
            </Array>
          </mxGeometry>
        </mxCell>
        <mxCell id="RGzH9FZQZOFzf2Un8pL5-54" value="&lt;div&gt;&lt;i&gt;&amp;lt;&amp;lt;protocol&amp;gt;&amp;gt;&lt;/i&gt;&lt;/div&gt;&lt;div&gt;HTTP&lt;br&gt;&lt;/div&gt;" style="edgeLabel;html=1;align=center;verticalAlign=middle;resizable=0;points=[];" vertex="1" connectable="0" parent="RGzH9FZQZOFzf2Un8pL5-53">
          <mxGeometry x="-0.2056" relative="1" as="geometry">
            <mxPoint x="35" y="-2" as="offset" />
          </mxGeometry>
        </mxCell>
        <mxCell id="RGzH9FZQZOFzf2Un8pL5-76" value="&lt;div align=&quot;justify&quot;&gt;&lt;b&gt;&lt;i&gt;&amp;lt;&amp;lt;droplet&amp;gt;&amp;gt;&lt;/i&gt;&lt;/b&gt;&lt;br&gt;&lt;/div&gt;&lt;div align=&quot;justify&quot;&gt;provider = Vagrant&lt;/div&gt;&lt;div align=&quot;justify&quot;&gt;image = Ubuntu 18.04&lt;/div&gt;&lt;div align=&quot;justify&quot;&gt;vCPU&#39;s = 1 vCPU&lt;/div&gt;&lt;div align=&quot;justify&quot;&gt;memory = 1 GB&lt;/div&gt;" style="shape=note;size=20;whiteSpace=wrap;html=1;" vertex="1" parent="1">
          <mxGeometry x="850" y="-10" width="150" height="100" as="geometry" />
        </mxCell>
      </root>
    </mxGraphModel>
  </diagram>
</mxfile>
